<svg width="38" height="38" viewBox="0 0 38 38" fill="none" xmlns="http://www.w3.org/2000/svg">
<g clip-path="url(#clip0)">
<path d="M29.2474 24.3565C29.3096 23.9601 29.0387 23.5883 28.6422 23.5261C28.2458 23.4639 27.874 23.7349 27.8118 24.1313C27.7496 24.5277 28.0206 24.8995 28.417 24.9617C28.8135 25.0239 29.1852 24.753 29.2474 24.3565Z" fill="black"/>
<path d="M32.5506 31.7537C36.0638 28.2404 37.9986 23.5693 37.9986 18.6009C37.9986 13.6324 36.0638 8.96133 32.5506 5.44802C29.0373 1.93485 24.3662 0 19.3977 0C14.4293 0 9.75821 1.93485 6.24489 5.44802C2.73173 8.96133 0.796875 13.6324 0.796875 18.6009C0.796875 23.5693 2.73173 28.2404 6.24489 31.7537C6.73862 32.2474 7.25595 32.7088 7.79305 33.1392C11.0777 35.7713 15.1275 37.2017 19.3977 37.2017C23.668 37.2017 27.7178 35.7713 31.0024 33.1391C31.5395 32.7088 32.0569 32.2474 32.5506 31.7537ZM13.792 34.8115V29.8124C13.792 29.4103 13.466 29.0843 13.0639 29.0843C12.6618 29.0843 12.3359 29.4103 12.3359 29.8124V34.2328C11.1519 33.6973 10.0282 33.0247 8.98409 32.2231V30.5915C8.98409 28.4545 9.6264 26.4012 10.8416 24.6536C11.9642 23.0393 13.4977 21.7887 15.2912 21.0193C16.5091 21.6947 17.9092 22.08 19.3977 22.08C20.8861 22.08 22.286 21.6948 23.5039 21.0195C24.3441 21.3806 25.1334 21.8505 25.8534 22.4203C25.9871 22.5261 26.1464 22.5775 26.3046 22.5775C26.5195 22.5775 26.7324 22.4828 26.876 22.3012C27.1255 21.9859 27.0722 21.528 26.7569 21.2785C26.1706 20.8146 25.5439 20.4089 24.8847 20.0647C26.7235 18.5052 27.8928 16.1792 27.8928 13.585C27.8928 8.90066 24.0819 5.08974 19.3977 5.08974C14.7134 5.08974 10.9025 8.90066 10.9025 13.585C10.9025 16.1788 12.0715 18.5044 13.9098 20.064C12.2118 20.9486 10.7533 22.2303 9.64617 23.8225C8.26055 25.8152 7.52806 28.1558 7.52806 30.5915V30.9718C7.44298 30.89 7.35811 30.8079 7.27448 30.7243C4.03626 27.4858 2.2529 23.1804 2.2529 18.6009C2.2529 14.0213 4.03626 9.7159 7.27455 6.47768C10.5128 3.23938 14.8182 1.45603 19.3977 1.45603C23.9773 1.45603 28.2827 3.23938 31.5209 6.47768C34.7592 9.7159 36.5426 14.0213 36.5426 18.6009C36.5426 23.1804 34.7592 27.4858 31.5209 30.7241C31.4372 30.8078 31.3524 30.8898 31.2674 30.9715V30.5913C31.2674 29.3206 31.0674 28.0697 30.6731 26.8733C30.5472 26.4915 30.1358 26.2839 29.7537 26.4097C29.3719 26.5356 29.1643 26.9472 29.2901 27.3291C29.6359 28.3782 29.8113 29.4758 29.8113 30.5913V32.223C28.7671 33.0245 27.6434 33.6971 26.4595 34.2326V29.8123C26.4595 29.4102 26.1335 29.0842 25.7314 29.0842C25.3293 29.0842 25.0034 29.4102 25.0034 29.8123V34.8113C23.2238 35.4251 21.3354 35.7456 19.3976 35.7456C17.4598 35.7456 15.5716 35.4252 13.792 34.8115ZM19.3977 20.6239C15.5163 20.6239 12.3586 17.4662 12.3586 13.5848C12.3586 9.7034 15.5163 6.54562 19.3977 6.54562C23.2791 6.54562 26.4369 9.70333 26.4369 13.5848C26.4369 17.4662 23.2791 20.6239 19.3977 20.6239Z" fill="black"/>
<path d="M21.8404 16.2474C20.8854 17.0533 19.8141 17.1404 19.3978 17.1404C18.1484 17.1404 17.2735 16.5159 16.9553 16.2474C16.648 15.9881 16.1887 16.027 15.9294 16.3343C15.6702 16.6416 15.709 17.1008 16.0163 17.3602C16.4568 17.7318 17.668 18.5964 19.3979 18.5964C19.9742 18.5964 21.4574 18.4759 22.7796 17.3601C23.0868 17.1008 23.1257 16.6415 22.8664 16.3342C22.6069 16.0269 22.1476 15.9881 21.8404 16.2474Z" fill="black"/>
</g>
<defs>
<clipPath id="clip0">
<rect width="37.2017" height="37.2017" fill="white" transform="translate(0.796875)"/>
</clipPath>
</defs>
</svg>
