<svg width="35" height="35" viewBox="0 0 35 35" fill="none" xmlns="http://www.w3.org/2000/svg">
<g clip-path="url(#clip0)">
<path d="M16.0417 20.0518C16.0417 19.4495 15.5488 18.958 14.9479 18.958H9.47917V23.333C9.47917 24.138 8.82583 24.7913 8.02083 24.7913C7.21583 24.7913 6.5625 24.138 6.5625 23.333V18.958H1.09375C0.491458 18.958 0 19.4495 0 20.0518V33.9059C0 34.5082 0.491458 34.9997 1.09375 34.9997H14.9479C15.5488 34.9997 16.0417 34.5082 16.0417 33.9059V20.0518Z" fill="white"/>
<path d="M35.0026 20.0518C35.0026 19.4495 34.5097 18.958 33.9088 18.958H28.4401V23.333C28.4401 24.138 27.7868 24.7913 26.9818 24.7913C26.1768 24.7913 25.5234 24.138 25.5234 23.333V18.958H20.0547C19.4524 18.958 18.9609 19.4495 18.9609 20.0518V33.9059C18.9609 34.5082 19.4524 34.9997 20.0547 34.9997H33.9088C34.5097 34.9997 35.0026 34.5082 35.0026 33.9059V20.0518Z" fill="white"/>
<path d="M25.5182 1.09375C25.5182 0.492917 25.0253 0 24.4245 0H18.9557V4.375C18.9557 5.18 18.3024 5.83333 17.4974 5.83333C16.6924 5.83333 16.0391 5.18 16.0391 4.375V0H10.5703C9.96802 0 9.47656 0.492917 9.47656 1.09375V14.9479C9.47656 15.5502 9.96802 16.0417 10.5703 16.0417H24.4245C25.0253 16.0417 25.5182 15.5502 25.5182 14.9479V1.09375Z" fill="white"/>
</g>
<defs>
<clipPath id="clip0">
<rect width="35" height="35" fill="white"/>
</clipPath>
</defs>
</svg>
