<svg width="55" height="55" viewBox="0 0 55 55" fill="none" xmlns="http://www.w3.org/2000/svg">
<path d="M51.4516 43.1972V40.8064H52.3387C53.1202 40.8064 53.8601 40.464 54.3675 39.8661C54.874 39.2691 55.0914 38.4805 54.9636 37.7016C54.756 36.4375 53.5842 35.4839 52.2394 35.4839H20.4032C19.9135 35.4839 19.5161 35.0856 19.5161 34.5968V33.7097H44.5491C46.4102 33.7097 48.0239 32.4491 48.4754 30.6448L51.3319 19.2207C51.4108 18.8996 51.4516 18.5696 51.4516 18.2405C51.4516 16.1798 49.8983 14.4934 47.9032 14.2441V7.09677H39.0323V0H21.2903V14.1935H19.5161V11.5323C19.5161 9.08653 17.5264 7.09677 15.0806 7.09677H12.2561C11.8889 6.06685 10.9131 5.32258 9.75806 5.32258H4.43548C1.98976 5.32258 0 7.31234 0 9.75806C0 12.2038 1.98976 14.1935 4.43548 14.1935H9.75806C10.9131 14.1935 11.8889 13.4493 12.2561 12.4194H14.1935V34.5968C14.1935 35.8813 14.5856 37.0753 15.2554 38.0662L13.2798 42.5815C9.86895 42.5966 7.09677 45.375 7.09677 48.7903C7.09677 52.2145 9.88315 55 13.3065 55C16.7298 55 19.5161 52.2145 19.5161 48.7903C19.5161 47.4206 19.0681 46.1104 18.2485 45.0352L20.6649 40.8064H46.129V43.1972C43.9876 44.2173 42.5806 46.3819 42.5806 48.7903C42.5806 52.2145 45.367 55 48.7903 55C52.2136 55 55 52.2145 55 48.7903C55 46.381 53.5931 44.2173 51.4516 43.1972ZM26.6129 31.9355H24.8387V27.5C24.8387 27.0112 25.2361 26.6129 25.7258 26.6129C26.2155 26.6129 26.6129 27.0112 26.6129 27.5V31.9355ZM33.7097 31.9355H31.9355V23.9516C31.9355 23.4628 32.3329 23.0645 32.8226 23.0645C33.3123 23.0645 33.7097 23.4628 33.7097 23.9516V31.9355ZM40.8064 31.9355H39.0323V27.5C39.0323 27.0112 39.4297 26.6129 39.9194 26.6129C40.409 26.6129 40.8064 27.0112 40.8064 27.5V31.9355ZM46.7544 30.2145C46.5007 31.2276 45.5932 31.9355 44.5491 31.9355H42.5806V27.5C42.5806 26.0327 41.3866 24.8387 39.9194 24.8387C38.4521 24.8387 37.2581 26.0327 37.2581 27.5V31.9355H35.4839V23.9516C35.4839 22.4844 34.2898 21.2903 32.8226 21.2903C31.3553 21.2903 30.1613 22.4844 30.1613 23.9516V31.9355H28.3871V27.5C28.3871 26.0327 27.1931 24.8387 25.7258 24.8387C24.2585 24.8387 23.0645 26.0327 23.0645 27.5V31.9355H19.5161V19.5161H49.429L46.7544 30.2145ZM35.4839 12.4194H39.0323V14.1935H35.4839V12.4194ZM35.4839 10.6452V8.87097H39.0323V10.6452H35.4839ZM40.8064 12.4194H46.129V14.1935H40.8064V12.4194ZM46.129 10.6452H40.8064V8.87097H46.129V10.6452ZM33.7097 7.09677V14.1935H28.3871V5.32258H37.2581V7.09677H33.7097ZM37.2581 3.54839H28.3871V1.77419H37.2581V3.54839ZM26.6129 1.77419V3.54839H23.0645V1.77419H26.6129ZM23.0645 5.32258H26.6129V14.1935H23.0645V5.32258ZM47.4047 15.9677C48.486 15.9677 49.39 16.728 49.618 17.7419H19.5161V15.9677H47.4047ZM10.6452 11.5323C10.6452 12.021 10.2477 12.4194 9.75806 12.4194H4.43548C2.96823 12.4194 1.77419 11.2253 1.77419 9.75806C1.77419 8.29081 2.96823 7.09677 4.43548 7.09677H9.75806C10.2477 7.09677 10.6452 7.49508 10.6452 7.98387V11.5323ZM12.4194 10.6452V8.87097H15.0806C16.5479 8.87097 17.7419 10.065 17.7419 11.5323V34.5968C17.7419 36.064 18.936 37.2581 20.4032 37.2581H52.2394C52.7184 37.2581 53.146 37.5792 53.2134 37.989C53.2577 38.2569 53.1877 38.516 53.0156 38.7173C52.8452 38.9178 52.5986 39.0323 52.3387 39.0323H20.4032C17.9575 39.0323 15.9677 37.0425 15.9677 34.5968V12.4194C15.9677 11.4409 15.172 10.6452 14.1935 10.6452H12.4194ZM15.1507 46.8795C14.7506 46.4927 14.2281 46.2399 13.6498 46.1636L16.5754 39.4758C17.2132 39.977 17.9504 40.3549 18.7532 40.5767L15.1507 46.8795ZM13.3065 47.9032C13.7961 47.9032 14.1935 48.3015 14.1935 48.7903C14.1935 49.2791 13.7961 49.6774 13.3065 49.6774C12.8168 49.6774 12.4194 49.2791 12.4194 48.7903C12.4194 48.3015 12.8168 47.9032 13.3065 47.9032ZM17.7419 48.7903C17.7419 51.236 15.7522 53.2258 13.3065 53.2258C10.8607 53.2258 8.87097 51.236 8.87097 48.7903C8.87097 46.632 10.4225 44.8339 12.4673 44.44L11.3433 47.0081C10.914 47.481 10.6452 48.1028 10.6452 48.7903C10.6452 50.2576 11.8392 51.4516 13.3065 51.4516C14.6761 51.4516 15.7939 50.4075 15.9385 49.076L17.2443 46.7899C17.5583 47.4064 17.7419 48.0833 17.7419 48.7903ZM49.6774 40.8064V46.2923C49.3989 46.1929 49.1026 46.129 48.7903 46.129C48.4781 46.129 48.1818 46.1929 47.9032 46.2923V40.8064H49.6774ZM49.6774 48.7903C49.6774 49.2791 49.28 49.6774 48.7903 49.6774C48.3006 49.6774 47.9032 49.2791 47.9032 48.7903C47.9032 48.3015 48.3006 47.9032 48.7903 47.9032C49.28 47.9032 49.6774 48.3015 49.6774 48.7903ZM48.7903 53.2258C46.3446 53.2258 44.3548 51.236 44.3548 48.7903C44.3548 47.3719 45.0344 46.0678 46.129 45.2437V48.7903C46.129 50.2576 47.3231 51.4516 48.7903 51.4516C50.2576 51.4516 51.4516 50.2576 51.4516 48.7903V45.2437C52.5463 46.0669 53.2258 47.3719 53.2258 48.7903C53.2258 51.236 51.236 53.2258 48.7903 53.2258Z" fill="white"/>
</svg>
