<svg width="35" height="35" viewBox="0 0 35 35" fill="none" xmlns="http://www.w3.org/2000/svg">
<g clip-path="url(#clip0)">
<path d="M15.6748 1.82288C15.3015 1.82288 14.9282 1.96579 14.6438 2.25017L3.34172 13.5523C2.77151 14.1225 2.77151 15.0441 3.34172 15.6143C3.91193 16.1845 4.83359 16.1845 5.4038 15.6143L16.7059 4.31225C17.2761 3.74204 17.2761 2.82038 16.7059 2.25017C16.4215 1.96579 16.0482 1.82288 15.6748 1.82288Z" fill="white"/>
<path d="M16.4051 1.45806H11.3009C10.859 1.45806 10.4594 1.72493 10.2903 2.13327C10.1211 2.5416 10.2144 3.01264 10.528 3.32472L15.6321 8.42889C15.9457 8.74097 16.4153 8.83576 16.8236 8.66659C17.2319 8.49743 17.4988 8.09785 17.4988 7.65597V2.55181C17.4988 1.94806 17.0088 1.45806 16.4051 1.45806Z" fill="white"/>
<path d="M1.46094 22.2399V30.6253H10.2109V22.2399C10.2109 21.2337 9.39427 20.417 8.38802 20.417H3.28385C2.2776 20.417 1.46094 21.2337 1.46094 22.2399Z" fill="white"/>
<path d="M13.125 16.4059V30.6247H21.875V16.4059C21.875 15.3997 21.0583 14.583 20.0521 14.583H14.9479C13.9417 14.583 13.125 15.3997 13.125 16.4059Z" fill="white"/>
<path d="M24.7891 10.5729V30.625H33.5391V10.5729C33.5391 9.56667 32.7224 8.75 31.7161 8.75H26.612C25.6057 8.75 24.7891 9.56667 24.7891 10.5729Z" fill="white"/>
<path d="M1.09375 35H33.9062C34.51 35 35 34.51 35 33.9062C35 33.3025 34.51 32.8125 33.9062 32.8125H1.09375C0.489998 32.8125 0 33.3025 0 33.9062C0 34.51 0.489998 35 1.09375 35Z" fill="white"/>
</g>
<defs>
<clipPath id="clip0">
<rect width="35" height="35" fill="white" transform="matrix(-1 0 0 1 35 0)"/>
</clipPath>
</defs>
</svg>
