<svg width="35" height="35" viewBox="0 0 35 35" fill="none" xmlns="http://www.w3.org/2000/svg">
<g clip-path="url(#clip0)">
<path d="M17.8672 2.91667H16.263C15.7818 1.23958 14.2359 0 12.3984 0C10.5609 0 9.0151 1.23958 8.53385 2.91667H6.92969C6.33177 2.91667 5.83594 3.4125 5.83594 4.01042V6.19792C5.83594 7.59792 6.98802 8.75 8.38802 8.75H16.4089C17.8089 8.75 18.9609 7.59792 18.9609 6.19792V4.01042C18.9609 3.4125 18.4651 2.91667 17.8672 2.91667Z" fill="white"/>
<path d="M20.7812 4.375H20.4167V6.19792C20.4167 8.41458 18.6229 10.2083 16.4062 10.2083H8.38542C6.16875 10.2083 4.375 8.41458 4.375 6.19792V4.375H4.01042C1.79375 4.375 0 6.16875 0 8.38542V26.6146C0 28.8313 1.79375 30.625 4.01042 30.625H14.7729L15.0938 28.8313C15.2396 28.0146 15.6187 27.2854 16.2021 26.6875L17.3687 25.5208H5.46875C4.87083 25.5208 4.375 25.025 4.375 24.4271C4.375 23.8292 4.87083 23.3333 5.46875 23.3333H19.3229C19.3958 23.3333 19.4542 23.3333 19.5271 23.3625H19.5417L24.7917 18.1125V8.38542C24.7917 6.16875 22.9979 4.375 20.7812 4.375ZM19.3229 20.7812H5.46875C4.87083 20.7812 4.375 20.2854 4.375 19.6875C4.375 19.0896 4.87083 18.5938 5.46875 18.5938H19.3229C19.9208 18.5938 20.4167 19.0896 20.4167 19.6875C20.4167 20.2854 19.9208 20.7812 19.3229 20.7812ZM19.3229 16.0417H5.46875C4.87083 16.0417 4.375 15.5458 4.375 14.9479C4.375 14.35 4.87083 13.8542 5.46875 13.8542H19.3229C19.9208 13.8542 20.4167 14.35 20.4167 14.9479C20.4167 15.5458 19.9208 16.0417 19.3229 16.0417Z" fill="white"/>
<path d="M18.269 35.0003C17.9817 35.0003 17.7017 34.8866 17.496 34.6795C17.2438 34.4272 17.13 34.0684 17.1927 33.7155L17.9656 29.3332C18.0035 29.113 18.1115 28.9089 18.269 28.7499L29.0971 17.9232C30.4271 16.5903 31.7338 16.9505 32.4483 17.6651L34.2523 19.4691C35.2483 20.4636 35.2483 22.0824 34.2523 23.0784L23.4242 33.9066C23.2667 34.0655 23.0625 34.172 22.8408 34.2099L18.4585 34.9828C18.3958 34.9945 18.3317 35.0003 18.269 35.0003ZM22.6513 33.1336H22.6658H22.6513Z" fill="white"/>
</g>
<defs>
<clipPath id="clip0">
<rect width="35" height="35" fill="white"/>
</clipPath>
</defs>
</svg>
